<svg xmlns="http://www.w3.org/2000/svg" width="18" height="18" viewBox="0 0 18 18">
    <g fill="#FFF" opacity=".499">
        <path d="M14.063 2.25h-1.525c-.752 0-1.397.534-1.54 1.271-.143.738.258 1.473.955 1.754l1.549.62c.196.078.31.287.269.495-.04.209-.223.36-.436.36h-1.523c-.31 0-.562.252-.562.563 0 .31.252.562.563.562h1.523c.751 0 1.397-.534 1.54-1.271.142-.738-.258-1.473-.955-1.754l-1.55-.62c-.196-.078-.309-.287-.268-.495.04-.209.223-.36.435-.36h1.524c.311 0 .563-.252.563-.563 0-.31-.252-.562-.563-.562z"/>
        <path d="M13.5 2.813V2.25c0-.31-.252-.563-.563-.563-.31 0-.562.252-.562.563v.563c0 .31.252.562.563.562.31 0 .562-.252.562-.563zM13.5 7.875v-.563c0-.31-.252-.562-.563-.562-.31 0-.562.252-.562.563v.562c0 .31.252.563.563.563.31 0 .562-.252.562-.563z"/>
        <path d="M12.938 0C15.732 0 18 2.267 18 5.063c0 2.795-2.267 5.062-5.063 5.062-2.795 0-5.062-2.267-5.062-5.063C7.875 2.268 10.142 0 12.938 0zm0 1.125C10.762 1.125 9 2.888 9 5.063 9 7.236 10.763 9 12.938 9c2.174 0 3.937-1.763 3.937-3.938 0-2.174-1.763-3.937-3.938-3.937zM5.063 7.875c2.795 0 5.062 2.267 5.062 5.063 0 2.795-2.267 5.062-5.063 5.062C2.268 18 0 15.733 0 12.937c0-2.795 2.267-5.062 5.063-5.062zm0 1.125c-2.175 0-3.938 1.763-3.938 3.938 0 2.174 1.763 3.937 3.938 3.937C7.236 16.875 9 15.112 9 12.937 9 10.764 7.237 9 5.062 9z"/>
        <path d="M6.264 14.63l-.077-.005c-.931 0-1.687-.756-1.687-1.688 0-.931.756-1.687 1.688-1.687.31 0 .562-.252.562-.563 0-.31-.252-.562-.563-.562-1.553 0-2.812 1.26-2.812 2.813 0 1.553 1.26 2.812 2.813 2.812.31 0 .562-.252.562-.563 0-.284-.212-.52-.486-.557z"/>
        <path d="M3.375 13.5h2.813c.31 0 .562-.252.562-.563 0-.31-.252-.562-.563-.562H3.376c-.31 0-.563.252-.563.563 0 .31.252.562.563.562zM2.443 5.416l-1.398-2.33c-.16-.267-.506-.353-.772-.193-.266.16-.353.505-.193.771l1.688 2.813c.16.266.505.353.771.193l2.813-1.688c.266-.16.353-.505.193-.771-.16-.267-.506-.353-.772-.193l-2.33 1.398z"/>
        <path d="M5.949.147c-2.378.867-3.884 3.215-3.68 5.738.024.31.296.54.605.515.31-.025.54-.296.516-.606-.163-2.018 1.042-3.897 2.944-4.59.292-.107.443-.43.336-.722C6.564.19 6.24.04 5.95.147zM16.955 14.914c.16.267.506.353.772.193.266-.16.353-.505.193-.771l-1.688-2.813c-.16-.266-.505-.353-.771-.193l-2.813 1.688c-.266.16-.353.505-.193.771.16.267.506.353.772.193l2.33-1.398 1.398 2.33z"/>
        <path d="M12.051 17.853c2.377-.866 3.883-3.214 3.68-5.736-.024-.31-.295-.54-.605-.516-.31.025-.54.296-.516.606.162 2.018-1.043 3.896-2.944 4.59-.292.106-.443.429-.336.72.106.293.43.443.721.336z"/>
    </g>
</svg>
