<svg xmlns="http://www.w3.org/2000/svg" width="18" height="18" viewBox="0 0 18 18">
    <g fill="#FFF" opacity=".499">
        <path d="M6.75 3V.75c0-.31-.252-.563-.563-.563-.31 0-.562.252-.562.563V3c0 .31.252.563.563.563.31 0 .562-.252.562-.563zM2.813 5.813H.563c-.311 0-.563.251-.563.562 0 .31.252.563.563.563h2.25c.31 0 .562-.252.562-.563 0-.31-.252-.563-.563-.563zM8.972 4.386l1.59-1.59c.22-.22.22-.576 0-.796-.22-.22-.575-.22-.795 0l-1.59 1.59c-.22.22-.22.577 0 .796.219.22.575.22.795 0zM4.199 3.59L2.608 2c-.22-.22-.576-.22-.795 0-.22.22-.22.576 0 .795l1.59 1.591c.22.22.576.22.796 0 .22-.22.22-.576 0-.795z" transform="translate(0 1.5)"/>
        <path d="M3.846 7.93c-.558-.854-.61-1.945-.134-2.848.476-.904 1.404-1.478 2.425-1.501 1.02-.024 1.974.508 2.49 1.39.157.267.502.357.77.2.268-.157.358-.501.2-.77-.722-1.233-2.056-1.978-3.486-1.945-1.429.032-2.728.837-3.394 2.101-.666 1.265-.595 2.792.187 3.989.17.26.519.333.779.163s.333-.519.163-.779zM7.885 10.067c.007.106.016.21.03.316l1.116-.14c-.01-.082-.018-.164-.023-.246C9.003 9.915 9 9.832 9 9.75c0-.31-.252-.562-.562-.562-.311 0-.563.251-.563.562l.002.159.008.159c.007.105.016.21.03.315.093.744 1.21.603 1.116-.14-.01-.082-.018-.164-.023-.246C9.003 9.915 9 9.832 9 9.75c0-.244.026-.49.074-.731.06-.305-.137-.601-.442-.662-.304-.06-.6.137-.661.441-.063.313-.095.631-.096.95l.002.16.008.16v-.001z" transform="translate(0 1.5)"/>
        <path d="M8.192 7.999c.8-2.176 3.015-3.571 5.386-3.271 2.652.335 4.587 2.675 4.417 5.343-.17 2.668-2.385 4.745-5.058 4.742H7.314c-1.386.002-2.632-.845-3.141-2.135-.509-1.29-.176-2.76.839-3.704.803-.748 1.904-1.046 2.948-.84l.173.038.06-.173zm.087 1.417c-.833-.4-1.825-.248-2.502.381-.676.63-.897 1.609-.559 2.468.34.86 1.17 1.424 2.095 1.423h5.625c2.08.002 3.802-1.613 3.934-3.688.132-2.075-1.372-3.895-3.435-4.156-2.063-.261-3.973 1.127-4.362 3.17-.07.362-.463.561-.796.402z" transform="translate(0 1.5)"/>
    </g>
</svg>
