<svg width="202" height="47" xmlns="http://www.w3.org/2000/svg">
  <g fill="#231F20" fill-rule="evenodd">
    <path d="M163.463 30.82l1.292 2.296.06.106H152.44l-.05-.106-1.027-2.297h12.1zm-18.036 0v2.402h-10.854V30.82h10.854zm-134.474 0v2.297h.009v.105H.105v-.105H.096V30.82h10.857zm18.043 0l1.29 2.296.063.106H17.974l-.047-.106-1.031-2.297h12.1zm49.438 0v2.402H66.051v-.105h-.009V30.82h12.392zm-18.138.058v2.327H34.891v-2.327h25.405zm62.29-.059a17.143 17.143 0 01-8.41 2.181c-3.07 0-5.941-.795-8.411-2.181zm68.338-.178v2.296h-12.417V30.64h12.417zM60.296 26.61v2.326H34.891V26.61h25.405zm85.132-.052v2.296h-10.854v-2.296h10.854zm15.64 0l1.291 2.296h-11.877l-1.03-2.296h11.617zm-134.466 0l1.29 2.296H16.016l-1.03-2.296h11.617zm-15.649 0v2.296H.096v-2.296h10.857zm67.481 0v2.296H66.042v-2.296h12.392zm25.503 0c.043.296.098.563.199.755.213.41.7 1.015 1.19 1.54h-2.36a16.42 16.42 0 01-2.172-2.294zm13.162 0c.059.446.216.875.697.867.427-.01.916-.352 1.368-.866h8.393a16.367 16.367 0 01-2.173 2.295h-18.925a1.661 1.661 0 00-.206-.44c-.366-.521-.554-1.22-.571-1.855zm73.825-.128v2.296h-12.417v-2.296h12.417zm-138.459-4.09v2.33H34.891v-2.33h17.574zm92.963-.042v2.296l-9.295-.001v.002h-.012v-.002h-1.547V22.3h10.854zm13.246 0l1.29 2.296h-11.39l-1.028-2.295h11.128zm-147.721 0v2.296H.096v-2.296h10.857zm13.253 0l1.291 2.296h-11.39l-1.03-2.295h11.13zm54.228 0v2.296H66.042v-2.296h12.392zm38.274 0c-.038.283-.097.558-.22.789-.26.495-.398.358-.193 1.004.055.17.13.338.215.503h-9.611c.588-.87.639-1.086.455-1.907a1.692 1.692 0 01-.05-.388zm5.899 0a.926.926 0 00-.111.294c-.12.699-.165.77-.301 1.03-.138.265-.525.91-.25.965.02.004.042.006.065.006h-1.635c.475-.863.899-1.43 1.036-1.712.09-.191.214-.347.296-.582zm4.946 0c-.156.382-.265.703-.026.665.149-.024.455-.304.717-.664h1.67c-.29.795-.64 1.563-1.053 2.295h-6.85c.3.005.873-.287.899-.89.027-.645.166-.865.356-1.168a.592.592 0 00.08-.237zm-24.928 0c.291.779.628 1.624.878 2.124.026.054.046.115.068.172H99.49a15.22 15.22 0 01-1.051-2.296zm88.203-.076v2.297h-12.225v-2.297h12.225zm-61.773.603c.027-.165-.057-.593-.247-.316-.28.397-.29.523-.455.62-.166.095-.688.08-.455.316.236.233.37.082.605-.165.235-.248.524-.291.552-.455zm-68.759-4.75v2.325H34.891v-2.325h25.405zm101.05-.035a10.177 10.177 0 01-3.754 2.293h-23.029v-2.293zm-59.464 0a9.23 9.23 0 00-.029.681c0 .621.004 1.078.122 1.612h-4.11a15.339 15.339 0 01-.32-2.294zm-75.003 0a10.185 10.185 0 01-3.753 2.293H.096v-2.293zm65.19 0a10.173 10.173 0 01-3.761 2.293H66.04v-2.293zm23.672 0c.053.13.092.28.117.46.093.732.039 1.006.398 1.613.049.083.095.155.14.22h-8.738c-.133-.105-.301-.23-.5-.426-.631-.634-1.18-.634-1.262-1.268a1.541 1.541 0 00-.195-.6zm11.792 0c.028.093.057.17.067.183.011.017.062-.069.114-.183h.359c.005.215.033.345-.062.27-.125-.099-.207-.017-.223.053-.013.07-.082-.152-.137.014-.094.288-.233.785.041.634.276-.152.221-.372.344-.372.123 0 .289 0 .289-.413 0-.066-.003-.127-.006-.186h2.487c-.05.78-.156 1.546-.32 2.293h-1.117c-.092-.22-.26-.492-.26-.235 0 .102.001.175.005.235h-.311c.019-.416-.014-.723-.15-.58a3.203 3.203 0 00-.4.58h-6.492c.033-.492.136-.982.379-1.392.195-.332.442-.63.664-.901zm63.391-.026v2.293h-12.417v-2.293h12.417zm-62.064 1.024c.015-.317-.191-1.018-.233-.578-.042.44.069.538.026.689-.04.152.195.207.207-.11zm-68.564-5.23v2.327H34.891v-2.327h25.405zm130.628-.003V16.1h-12.417v-2.295h12.417zm-63.994.657l.04.012c.165.082.104.805.228 1.053.102.204.294.324.362.548h-.95c.049-.27.083-.606.083-.878 0-.456.114-.805.277-.723zm-17.106-.685c.03.76.182 1.697.36 2.298h-6.223a1.24 1.24 0 00-.321-.464c-.377-.334-.813.088-1.077.464h-.446c-.057-.126-.191-.307-.361-.567-.226-.354.043-.354.268-.517.228-.166.187-.352-.02-.455-.205-.103-.515.144-.927.081-.412-.06-.123-.205-.043-.578a.969.969 0 01.1-.262zm-10.001 0c.02.205.066.358.14.408.138.092.168-.145.214-.407h.294c-.027.268-.06.586-.033.839.06.6.81.58.95.746.12.147.047.389-.031.712h-3.812c.05-.784.157-1.55.32-2.297zm22.057 0l.012.028c.411.882.55 1.654.908 1.681.355.027 1.264-.855 1.372-1.473.015-.087.035-.164.054-.236h.96c.228.277.416.567.487.8.162.551.35 1.084.4 1.435.003.021.01.042.014.062h-2.82a.642.642 0 00-.444-.313c-.684-.152-.754-.11-.919-.51-.113-.272-.352-.922-.594-1.474h.57zm42.095 0a9.914 9.914 0 01-1.035 2.298h-28.376v-2.297zm-134.468 0a9.793 9.793 0 01-1.035 2.298H.096v-2.297zm100.98 0c.163.747.269 1.514.319 2.297h-2.819c-.08-.267-.313-.778-.273-.992.04-.227.267-.247.35-.433.065-.145.115-.562.072-.872zm-35.797 0a9.778 9.778 0 01-1.046 2.298H66.041v-2.297zm8.387 1.017c.124-.227-.051-.579-.28-.32-.128.147-.42.31-.234.402.183.094.389.145.514-.082zm-1.08-1l-.053.018a.238.238 0 00-.062.372c.158.18.308.175.452.25.145.071.537 0 .302-.198-.238-.197-.527-.528-.692-.424zm99.236-4.2v2.295H168.2V9.595h33.033zM52.465 9.54v2.329H34.891V9.54h17.574zm61.28-.02c-.219.07-.299.104-.666.116-.482.013-.826-.03-1.059.288-.157.213-.986 1.088-1.57 1.892h-7.582l.003-.007c.102-.246.845-1.361 1.402-1.94.15-.156.304-.265.45-.35zm15.115 0a15.1 15.1 0 011.054 2.296h-2.001c-.005-.031-.012-.056-.015-.088-.061-.486-.154-.763-.35-1.003-.196-.237-.381-.577-.311-.701.074-.125.125-.082.33.238.208.318.282.485.415.598.132.114.07-.092-.103-.412-.146-.267-.3-.585-.472-.928zm-33.845 0c.064.45.108.91.108 1.379 0 .308-.02.615-.047.917H66.042V9.52zm69.288 0c.066.45.108.91.108 1.379 0 .308-.018.615-.048.917h-29.8V9.52zm-134.467 0c.064.45.106.91.106 1.379 0 .308-.016.615-.046.917H.096V9.52zm90.737 2.18c.08-.18-.098-.633.08-.373.054.079.151.26.27.489h-.579c-.008-.03-.016-.056-.019-.075-.027-.18-.043-.48.027-.33.068.15.136.469.221.29zM100.5 9.52c-.264.465-.446.88-.455 1.071-.02.518.432-.599.825-.619.388-.02-.35.925-.726 1.843h-1.706A15.28 15.28 0 0199.49 9.52zm17.428 0c0 .015.017.007.144.02.233.02.31.053.35-.02h.425c.01.128.056.232.255.28.344.083.949.027 1.085.096.138.07.398.33.398.428 0 .095.084.261-.068.425-.152.166-.287.36-.592.262-.302-.096-.645-.426-.905-.454-.262-.028-.702-.11-1.005-.028-.303.083-.921.248-1.251.124-.33-.124-.936-.55-1.031-.826-.036-.104-.054-.21-.082-.308zm.416.176c-.15-.055-.014.151.097.276.11.123.24.198.413.213.172.016.15-.125.006-.276-.143-.149-.328-.145-.516-.213zm82.894-4.31v2.298h-33.043V5.386h33.043zM60.296 5.272v2.33H34.891v-2.33h25.405zm33.058-.013c.488.706.879 1.477 1.176 2.297H66.107V5.26zm-65.247 0a9.881 9.881 0 011.175 2.297H.096V5.26zm97.277 0c.8.695 1.526 1.464 2.173 2.298h-1.774a7.051 7.051 0 00-.372-.332c-.661-.536-.977-.428-1.223-.73-.248-.303-.4-.55-.744-.618-.343-.07-.728-.14-.837-.221-.111-.083-.111.068-.234.125-.124.054-.345-.125-.453-.345a1.17 1.17 0 00-.104-.176zm-19.187 0c-.198.086-.34.136-.233.262.165.197.671-.021.506.206-.165.229-.569.362-.165.435.403.07.762-.011.854-.32.094-.311.154-.342.32-.372a.836.836 0 00.347-.21h5.171c-.059.063-.083.155-.018.292.116.238.393.155.32.393-.074.237-.246.319-.246.455 0 .132-.435.257-.125.298.31.043.434-.216.753-.26.32-.038.681-.246.464-.461-.216-.218-.514-.157-.547-.374a.806.806 0 00-.129-.343h2.177c.01.017.021.03.031.052.165.344.537.702.73.398.086-.138.118-.298.145-.45h.777c.185.05.392.068.328.215-.084.194-.342.429-.66.58-.316.15-.99.166-1.18.125-.195-.043-.152-.511-.469-.345-.316.165-.632.428-.756.469-.123.04-.565.317-.784.424-.218.112-.618.084-.715.277-.095.192.137.413.124.524 0 .008-.007.018-.01.028h-6.362c.034-.163.112-.263.17-.496.083-.333-.04-.456-.413-.58-.37-.124-.37.187-.72.247-.253.047-.554.436-.866.829h-1.04c.05-.045.104-.093.152-.147.207-.226 1.073-.701 1.32-.887.247-.186.206-.35.103-.413-.104-.061-.618.04-.763.206-.144.166-.598.434-1.174.64-.579.207-.724.25-1.485.599l-.003.002h-1.332a16.16 16.16 0 012.172-2.297zm56.444 0a9.923 9.923 0 011.176 2.297H134.63V5.26zm-58.368.996c.268-.206-.043-.321-.238-.238-.194.084-.66.31-.69.65-.03.342.492-.077.928-.412zm8.5-.568c-.04-.072-.4-.072-.638.278-.238.35-.03.579.153.465.187-.114.431-.175.537-.547.021-.072-.012-.124-.052-.196zm8.752-.428c-.051.131.08.284-.17.271-.273-.012-.508-.183-.754-.27zm79.713-4.08v2.295h-33.043V1.178h33.043zM60.296 1.005v2.327H34.891V1.006h25.405zM155.662 1a10.199 10.199 0 015.18 2.294H134.63V1zM21.128 1a10.199 10.199 0 015.18 2.294H.096V1zm65.247 0a10.191 10.191 0 015.18 2.294H66.107V1zm27.801.115c3.067 0 5.94.794 8.41 2.178h-5.778c.14-.09.244-.2.065-.275-.246-.101-.467-.097-.61-.117-.146-.02-.46-.048-.633.035-.149.071-.034.156.062.276.023.026.042.055.063.081h-2.098c.41-.276.746-.583.494-.623-.393-.06-1.868-.04-3.238.373-.279.083-.588.167-.883.25h-4.265a17.153 17.153 0 018.411-2.179z"/>
    <path d="M58.86 46.2v-4.87l1.84 4.87h.78v-7.12h-.86v4.87l-1.82-4.87H58v7.12h.86zm10.66 0v-.77h-1.89v-2.42h1.63v-.77h-1.63v-2.39h1.89v-.77h-2.75v7.12h2.75zm6.57 0l1.1-5.73 1.11 5.73h.89l1.22-7.12h-.94l-.72 5.73-1.08-5.73h-.96l-1.06 5.73-.73-5.73h-.95l1.23 7.12h.89zm10.53.07c.57 0 .99-.17 1.26-.43.34-.34.44-.81.44-1.55 0-1.12-.19-1.62-1-1.95l-.8-.33c-.57-.24-.68-.45-.68-1.15 0-.37.08-.66.25-.85.12-.13.3-.22.55-.22.27 0 .46.09.58.24.18.22.22.48.22.86h.86c0-.65-.11-1.11-.47-1.46-.27-.26-.66-.41-1.18-.41-.47 0-.85.15-1.13.41-.36.33-.54.84-.54 1.46 0 1.08.24 1.48.97 1.78l.81.33c.58.24.7.49.7 1.31 0 .47-.04.74-.23.95-.13.14-.32.23-.61.23-.27 0-.47-.09-.59-.22-.19-.2-.24-.46-.24-.93h-.86c0 .76.11 1.17.44 1.5.28.28.7.43 1.25.43zm12.95-.07l.34-1.68h1.65l.34 1.68h.91l-1.65-7.12h-.83l-1.66 7.12h.9zm1.83-2.45h-1.33l.67-3.28.66 3.28zm7.72 2.53c.93 0 1.64-.6 1.65-1.79v-2.11h-1.65v.71h.79v1.43c0 .58-.29.99-.79.99-.28 0-.47-.11-.59-.27-.25-.34-.29-.91-.29-2.6s.04-2.26.29-2.6c.12-.16.31-.27.59-.27.66 0 .78.59.79 1.07h.85c-.01-.57-.16-1.07-.49-1.4-.27-.27-.65-.44-1.15-.44-.56 0-.95.22-1.22.52-.46.51-.52 1.15-.52 3.12 0 1.97.06 2.61.52 3.12.27.3.66.52 1.22.52zm9.52-.08v-.77h-1.89v-2.42h1.63v-.77h-1.63v-2.39h1.89v-.77h-2.75v7.12h2.75zm5.91 0v-4.87l1.84 4.87h.78v-7.12h-.86v4.87l-1.82-4.87h-.8v7.12h.86zm9.48.08c.47 0 .82-.14 1.1-.39.35-.32.53-.85.54-1.45h-.85c-.01.3-.07.61-.23.82-.11.14-.29.25-.56.25-.28 0-.47-.11-.59-.27-.25-.34-.29-.91-.29-2.6s.04-2.26.29-2.6c.12-.16.31-.27.59-.27.27 0 .45.11.56.25.17.21.22.51.23.81h.85c-.01-.58-.18-1.09-.51-1.41-.28-.27-.63-.42-1.13-.42-.56 0-.95.21-1.22.52-.47.54-.52 1.15-.52 3.12 0 1.97.05 2.58.52 3.12.27.31.66.52 1.22.52zm8.16-.08v-2.88l1.32-4.24h-.95l-.8 3.04-.8-3.04h-.94l1.31 4.24v2.88h.86z" fill-rule="nonzero"/>
  </g>
</svg>
